# xmcd
#
# Track frame offsets:
# 150
# 16841
# 36271
# 58934
# 81349
# 100683
# 120573
# 138978
# 157463
# 179207
# 199140
# 220400
# 238041
#
# Disc length: 3385 seconds
#
#
# Revision: 1
# Processed by: cddbd v1.5.1PL0 Copyright (c) Steve Scherf et al.
# Submitted via: FreeRIP 2.40 
#
DISCID=c30d370d
DTITLE=Colin Linden - Southern Jumbo
DYEAR=2005
DGENRE=Blues
TTITLE0=Southern Jumbo
TTITLE1=That Was Me
TTITLE2=Which Way Does The M and O Run
TTITLE3=I Give Up
TTITLE4=Sugar Mine
TTITLE5=Might As Well Enjoy The Rain
TTITLE6=Bucket Of Soul
TTITLE7=Train Left An Hour Ago
TTITLE8=Hock's In The Water
TTITLE9=Test Song
TTITLE10=Dog Catcher
TTITLE11=Back Door To Heaven
TTITLE12=Go Back Old Devil
EXTD=http://www.colinlinden.com\nhttp://www.truenorthrecords.com/mainartist.php?artist_id=156
EXTT0=
EXTT1=
EXTT2=
EXTT3=
EXTT4=
EXTT5=
EXTT6=
EXTT7=
EXTT8=
EXTT9=
EXTT10=
EXTT11=
EXTT12=
PLAYORDER=
